Coordinates
version=1
nRows=34
nColumns=19
inDegrees=yes

Units are S.I. units (second, meters, Newtons, ...)
If the header above contains a line with 'inDegrees', this indicates whether rotational values are in degrees (yes) or radians (no).

endheader
time	pelvis_tilt	pelvis_list	pelvis_rotation	pelvis_tx	pelvis_ty	pelvis_tz	hip_flexion_r	hip_adduction_r	hip_rotation_r	knee_angle_r	knee_angle_r_beta	ankle_angle_r	hip_flexion_l	hip_adduction_l	hip_rotation_l	knee_angle_l	knee_angle_l_beta	ankle_angle_l
     17.42666667	     -0.82602506	      9.10233351	     10.05495356	      2.19527127	      0.87337275	      0.97600160	    -16.00011746	     -7.18548737	    -10.78090751	     79.97600492	      1.39584461	    -10.00285655	     24.17358214	     15.00844273	     -5.12039808	     23.21641824	      0.40520294	      5.63727009
     17.43333333	     -0.41715916	      9.45574618	     10.81299090	      2.19308570	      0.86871221	      0.97597263	    -14.71079532	     -7.30877834	    -10.80835055	     84.23141058	      1.47011545	     -9.89652378	     24.30744385	     15.25742494	     -5.21287104	     27.11301360	      0.47321136	      6.25324499
     17.44000000	      0.47542750	     10.16848527	     11.50208676	      2.19091944	      0.86454268	      0.97590581	    -14.08301405	     -7.98676355	    -11.20357953	     88.24599872	      1.54018323	     -9.63465036	     23.66210984	     15.79054188	     -5.11867760	     30.72228957	      0.53620511	      7.16342097
     17.44666667	      0.30764499	      9.98311846	     12.29157232	      2.18825051	      0.85942522	      0.97567889	    -11.79475261	     -7.87559329	    -11.15280855	     92.32000218	      1.61128800	     -9.21717274	     24.43359698	     15.64952572	     -4.55995662	     34.70617524	      0.60573703	      8.49086538
     17.45333333	      1.11423717	     10.44887349	     12.85054971	      2.18572204	      0.85561044	      0.97546969	    -10.80274325	     -8.56921718	    -11.38981383	     96.01087245	      1.67570584	     -8.65191836	     23.68763162	     15.98156694	     -4.00970946	     38.03294000	      0.66380003	     10.08725572
     17.46000000	      1.71538424	     10.67341049	     13.33090030	      2.18301572	      0.85195698	      0.97519417	     -9.36141826	     -9.17220356	    -11.44096055	     99.53838629	      1.73727257	     -8.04735773	     23.05797975	     16.12679963	     -3.26928349	     41.14214831	      0.71806595	     11.97014296
     17.46666667	      1.32962071	     10.23693146	     13.76523622	      2.17994767	      0.84779139	      0.97483081	     -6.32537031	     -9.32029548	    -11.01922106	    103.05805240	      1.79870234	     -7.49755615	     23.55159460	     15.81153599	     -2.43896319	     44.14332904	      0.77044643	     13.93814235
     17.47333333	      1.57280072	     10.17880871	     13.91330807	      2.17704057	      0.84482748	      0.97457159	     -4.02009023	     -9.90808379	    -10.52503639	    106.18847435	      1.85333851	     -6.88948349	     22.93822763	     15.67508912	     -1.78052843	     46.47209538	      0.81109107	     16.01321166
     17.48000000	      1.76689958	     10.06344540	     13.90900294	      2.17415990	      0.84235118	      0.97434889	     -1.48814119	    -10.49357673	     -9.81258283	    109.02406194	      1.90282884	     -6.31070121	     22.14186573	     15.44218988	     -1.19864350	     48.35292096	      0.84391767	     18.08770436
     17.48666667	      2.18767815	     10.00800121	     13.75712045	      2.17140519	      0.84074330	      0.97419376	      0.88247749	    -11.08991974	     -8.95593336	    111.47182578	      1.94555038	     -5.71905408	     20.77322112	     15.18249388	     -0.65347365	     49.67433238	      0.86698065	     20.12149073
     17.49333333	      2.75832651	      9.96757225	     13.71236655	      2.16869751	      0.83980123	      0.97384005	      3.06531413	    -11.73042115	     -8.27793844	    113.47598647	      1.98052959	     -5.32852704	     18.98814916	     14.98977852	      0.16287703	     50.60463035	      0.88321742	     21.85569035
     17.50000000	      1.90652786	      9.45834823	     12.93684383	      2.16636271	      0.83789646	      0.97417035	      7.51950721	    -11.95040603	     -6.40566432	    115.51028099	      2.01603472	     -4.93500404	     18.69001788	     14.22113541	     -0.21709322	     51.10564617	      0.89196179	     23.63862205
     17.50666667	      1.59347880	      9.12591321	     12.59825787	      2.16421395	      0.83706992	      0.97401009	     11.01397731	    -12.26471046	     -5.24610317	    116.89339629	      2.04017464	     -4.57221471	     17.47127441	     13.75795966	      0.11841900	     51.21035451	      0.89378930	     25.10134060
     17.51333333	      1.57933685	      8.93059995	     12.16898868	      2.16258048	      0.83714142	      0.97391094	     14.04876794	    -12.59522005	     -4.14724044	    117.75452495	      2.05520417	     -4.20405772	     15.61138035	     13.32736735	      0.34846379	     50.80570584	      0.88672685	     26.31496036
     17.52000000	      1.57955814	      8.54296374	     12.13078946	      2.16133971	      0.83792360	      0.97344636	     16.78642858	    -12.74322646	     -3.68098553	    118.02548919	      2.05993339	     -3.75556655	     13.54182675	     12.82721520	      1.12956524	     50.09412299	      0.87430738	     27.22582260
     17.52666667	      0.94296570	      8.30948128	     11.52323665	      2.16037190	      0.83826625	      0.97345799	     20.48762729	    -12.96750599	     -2.47362482	    118.17424248	      2.06252962	     -3.51612088	     12.04779932	     12.38585446	      0.95859405	     49.05272682	      0.85613159	     27.77246670
     17.53333333	      0.67448802	      7.81532790	     11.59211891	      2.15982670	      0.83978452	      0.97287644	     23.23024529	    -13.03266168	     -2.40782397	    117.60269699	      2.05255427	     -3.07579806	     10.02429154	     11.75807224	      1.65575602	     47.83982821	      0.83496252	     28.01285203
     17.54000000	      0.20595495	      7.56565584	     11.30476476	      2.15966564	      0.84149142	      0.97258068	     26.19280508	    -13.22593753	     -1.92866660	    116.76823972	      2.03799024	     -2.77471761	      8.03288173	     11.34583909	      1.91886642	     46.23537787	      0.80695957	     27.84652633
     17.54666667	     -0.31517038	      6.97328803	     11.43378549	      2.15993242	      0.84383701	      0.97197298	     28.80689164	    -13.21247204	     -2.24231292	    115.36003875	      2.01341250	     -2.37358739	      6.12503214	     10.58289904	      2.54536027	     44.61544154	      0.77868635	     27.33691030
     17.55333333	     -0.69022197	      6.45113589	     11.51092187	      2.16054521	      0.84694153	      0.97142129	     31.03504750	    -13.22184327	     -2.64220021	    113.53659473	      1.98158740	     -2.10239188	      3.93759732	      9.82906708	      3.12858564	     42.67701652	      0.74485445	     26.31279636
     17.56000000	     -0.24871039	      5.87969101	     11.70732912	      2.16178919	      0.85155784	      0.97072872	     31.86176610	    -13.20200826	     -3.63479337	    111.12758483	      1.93954225	     -1.56687674	      0.76517217	      8.76559931	      3.75666312	     40.44359403	      0.70587388	     24.86773189
     17.56666667	     -0.50012533	      5.08717826	     11.96986700	      2.16312045	      0.85580328	      0.97008991	     33.34894280	    -12.98582531	     -4.66933142	    108.43807432	      1.89260143	     -1.29484234	     -1.46228702	      7.56062787	      4.22676996	     38.35880198	      0.66948739	     22.95027163
     17.57333333	     -0.55160468	      4.27683423	     12.21296579	      2.16471285	      0.86065681	      0.96952066	     34.36388409	    -12.71989045	     -5.86380153	    105.38173412	      1.83925823	     -0.95267475	     -3.89097498	      6.23850796	      4.54876162	     36.11386139	      0.63030579	     20.53013287
     17.58000000	     -0.64453638	      3.38783206	     12.39462873	      2.16658005	      0.86571150	      0.96906411	     35.22870917	    -12.26772294	     -7.06882095	    101.99116239	      1.78008159	     -0.65197574	     -6.17388153	      4.80417283	      4.61405824	     33.87075250	      0.59115615	     17.65205859
     17.58666667	     -0.89958724	      2.42775817	     12.39473848	      2.16861958	      0.87071729	      0.96880870	     36.16485967	    -11.58778014	     -8.12205017	     98.32527656	      1.71609981	     -0.46687026	     -8.16628183	      3.32953295	      4.26981407	     31.66297945	      0.55262324	     14.37308345
     17.59333333	     -0.97952382	      1.56705167	     12.45407877	      2.17087287	      0.87603187	      0.96847766	     36.63289109	    -10.96416754	     -9.23492966	     94.35858292	      1.64686795	     -0.15508918	    -10.29865638	      1.92964643	      3.87324924	     29.42339968	      0.51353520	     10.63560208
     17.60000000	     -1.17271060	      0.68624350	     12.35187005	      2.17330244	      0.88113560	      0.96826876	     37.10633276	    -10.18551663	    -10.19363889	     90.15795551	      1.57355317	      0.07899375	    -12.20448276	      0.57372118	      3.11015382	     27.26613021	      0.47588375	      6.67523828
     17.60666667	     -1.36308698	     -0.12515186	     12.18891629	      2.17586052	      0.88620377	      0.96807829	     37.39560386	     -9.35741878	    -11.03362586	     85.68964134	      1.49556638	      0.33048202	    -14.02705913	     -0.65987459	      2.17998394	     25.19602555	      0.43975360	      2.50574283
     17.61333333	     -1.85217203	     -0.89263737	     11.77045960	      2.17853779	      0.89067967	      0.96813844	     37.95378507	     -8.35252106	    -11.49276532	     81.05401308	      1.41465940	      0.53678780	    -15.43712176	     -1.69480934	      0.81335702	     23.29854054	      0.40663624	     -1.65024787
     17.62000000	     -2.02570029	     -1.46087680	     11.39224581	      2.18140323	      0.89518427	      0.96801930	     37.91959620	     -7.53669944	    -12.01439863	     76.22532985	      1.33038298	      0.91162153	    -17.14519763	     -2.56206943	     -0.66259463	     21.48898143	      0.37505348	     -5.82807317
     17.62666667	     -2.40495549	     -1.99428453	     10.87564515	      2.18439391	      0.89915056	      0.96802169	     37.98999683	     -6.62669421	    -12.33884787	     71.21083601	      1.24286355	      1.23951507	    -18.54028635	     -3.25988133	     -2.32812128	     19.89115008	      0.34716606	     -9.71380980
     17.63333333	     -2.60900020	     -2.39096580	     10.38409040	      2.18738987	      0.90292943	      0.96798018	     37.70165555	     -5.81054372	    -12.66689134	     66.04588757	      1.15271820	      1.62582401	    -20.05818660	     -3.81767711	     -4.06399122	     18.44995554	      0.32201247	    -13.28195397
     17.64000000	     -3.00730527	     -2.68206278	      9.71660762	      2.19038016	      0.90595321	      0.96815540	     37.55814678	     -4.97035991	    -12.75712979	     60.81721395	      1.06146063	      2.07819436	    -21.24453333	     -4.16897520	     -6.11399363	     17.38015579	      0.30334094	    -16.33343384
     17.64666667	     -3.31313659	     -2.88885808	      9.05965024	      2.19334302	      0.90863359	      0.96837919	     37.17923781	     -4.15428071	    -12.82666613	     55.47959241	      0.96830156	      2.57996298	    -22.43418793	     -4.42966026	     -8.18059133	     16.57254126	      0.28924541	    -18.88062636
